<?xml version="1.0" encoding="utf-8"?>
<!-- Generator: Adobe Illustrator 25.2.1, SVG Export Plug-In . SVG Version: 6.00 Build 0)  -->
<svg version="1.1" id="Capa_1" xmlns="http://www.w3.org/2000/svg" xmlns:xlink="http://www.w3.org/1999/xlink" x="0px" y="0px"
	 viewBox="0 0 100 100" style="enable-background:new 0 0 100 100;" xml:space="preserve">
<style type="text/css">
	.st0{fill:#FEFEFE;}
	.st1{fill:#6CBC45;}
	.st2{fill:#949599;}
	.st3{fill:#026EB9;}
</style>
<g>
	<path class="st0" d="M39.74,85.65c0.44,0,0.88,0.01,1.32,0c5.94-0.1,11.69-1.27,17.3-3.15c11.28-3.78,21.5-9.55,30.94-16.73
		c2.91-2.22,5.76-4.52,8.03-7.44c0.37-0.48,0.45-1.19,0.67-1.79c-0.64-0.06-1.34-0.31-1.92-0.16c-3.34,0.86-6.67,1.74-9.96,2.76
		c-11.78,3.64-23.62,6.94-35.98,7.94c-6.99,0.57-13.94,0.39-20.77-1.35c-9.61-2.44-16.21-8.1-18.95-17.85
		c-0.42-1.5-0.85-3-1.39-4.45c-0.48-1.28-1.52-1.56-2.46-0.58c-0.79,0.83-1.5,1.85-1.93,2.91C3.46,48.64,3,51.69,2.95,54.8
		C2.76,65.87,7.47,74.18,17.09,79.63C24.1,83.6,31.8,85.11,39.74,85.65z"/>
	<path class="st0" d="M43.01,31.75c7.88-0.07,15.28,1.26,22.56,3.38c7.73,2.24,15.06,5.48,22.29,8.97c2.53,1.22,5.12,2.29,7.72,3.35
		c0.46,0.19,1.42,0.16,1.56-0.09c0.25-0.43,0.21-1.22-0.03-1.7c-0.73-1.44-1.49-2.91-2.46-4.19c-6.58-8.65-14.89-15.23-24.54-20.13
		c-9.08-4.61-18.66-7-28.92-6.02c-6.71,0.64-12.77,2.93-17.95,7.32c-4.31,3.66-7.44,8.13-8.78,13.71c-0.43,1.79-0.65,3.62,0.25,5.36
		c0.58,1.12,1.3,1.26,2.28,0.47c0.37-0.3,0.7-0.64,1.01-1c2.55-2.93,5.57-5.23,9.17-6.73C32.33,32.31,37.74,31.66,43.01,31.75z"/>
	<path class="st1" d="M39.74,85.65c-7.94-0.54-15.65-2.06-22.66-6.03C7.47,74.18,2.76,65.87,2.95,54.8c0.05-3.1,0.51-6.15,1.68-9.03
		c0.43-1.06,1.13-2.08,1.93-2.91c0.94-0.98,1.98-0.7,2.46,0.58c0.54,1.45,0.97,2.95,1.39,4.45c2.74,9.75,9.34,15.41,18.95,17.85
		c6.83,1.73,13.78,1.92,20.77,1.35c12.36-1.01,24.2-4.3,35.98-7.94c3.29-1.02,6.63-1.9,9.96-2.76c0.59-0.15,1.28,0.1,1.92,0.16
		c-0.22,0.6-0.3,1.31-0.67,1.79c-2.26,2.92-5.11,5.22-8.03,7.44c-9.44,7.18-19.66,12.95-30.94,16.73
		c-5.61,1.88-11.36,3.06-17.3,3.15C40.62,85.66,40.18,85.65,39.74,85.65z"/>
	<path class="st2" d="M43.01,31.75c-5.27-0.09-10.68,0.56-15.84,2.71c-3.6,1.5-6.62,3.8-9.17,6.73c-0.31,0.36-0.64,0.7-1.01,1
		c-0.97,0.79-1.7,0.65-2.28-0.47c-0.9-1.74-0.67-3.57-0.25-5.36c1.34-5.58,4.46-10.04,8.78-13.71c5.17-4.39,11.23-6.68,17.95-7.32
		c10.26-0.98,19.84,1.41,28.92,6.02c9.65,4.89,17.96,11.48,24.54,20.13c0.97,1.28,1.73,2.75,2.46,4.19c0.24,0.48,0.27,1.27,0.03,1.7
		c-0.14,0.26-1.1,0.28-1.56,0.09c-2.6-1.06-5.19-2.14-7.72-3.35c-7.23-3.49-14.56-6.72-22.29-8.97
		C58.29,33.01,50.89,31.68,43.01,31.75z"/>
	<path class="st3" d="M87.83,46.91c-1.46-0.18-2.93-0.39-4.39-0.54c-11.53-1.18-22.84-0.26-33.78,3.8
		c-4.47,1.66-8.55,4.05-12.4,6.85c-1.04,0.76-2.1,1.5-3.21,2.13c-1.67,0.95-3.16,0.54-3.94-1.23c-0.52-1.18-0.91-2.51-0.99-3.79
		c-0.11-2.02-0.09-4.07,0.2-6.07c0.56-3.93,3.09-6.43,6.52-8.11c3.37-1.64,7.01-2.22,10.71-2.44c9.32-0.55,18.33,1.09,27.13,4.01
		C78.45,43.1,83.1,45.22,87.83,46.91C87.81,47.03,87.85,46.79,87.83,46.91z"/>
</g>
</svg>
