<?xml version="1.0" encoding="utf-8"?>
<!-- Generator: Adobe Illustrator 25.2.1, SVG Export Plug-In . SVG Version: 6.00 Build 0)  -->
<svg version="1.1" id="Capa_1" xmlns="http://www.w3.org/2000/svg" xmlns:xlink="http://www.w3.org/1999/xlink" x="0px" y="0px"
	 viewBox="0 0 300 63" style="enable-background:new 0 0 300 63;" xml:space="preserve">
<style type="text/css">
	.st0{fill:#FEFEFE;}
	.st1{fill:#6CBC45;}
	.st2{fill:#949599;}
	.st3{fill:#026EB9;}
</style>
<g>
	<path class="st0" d="M31.05,59.94c0.36,0,0.72,0.01,1.08,0c4.88-0.08,9.61-1.04,14.22-2.59c9.27-3.11,17.67-7.85,25.44-13.75
		c2.39-1.82,4.74-3.72,6.6-6.11c0.31-0.39,0.37-0.98,0.55-1.47c-0.53-0.05-1.1-0.26-1.58-0.13c-2.74,0.71-5.49,1.43-8.19,2.27
		c-9.68,2.99-19.42,5.7-29.58,6.53c-5.75,0.47-11.46,0.32-17.08-1.11c-7.9-2-13.32-6.66-15.58-14.68c-0.35-1.23-0.7-2.46-1.15-3.66
		c-0.39-1.06-1.25-1.29-2.02-0.48c-0.65,0.68-1.23,1.52-1.58,2.39c-0.96,2.37-1.34,4.87-1.38,7.42c-0.16,9.1,3.72,15.93,11.62,20.41
		C18.19,58.25,24.52,59.5,31.05,59.94z"/>
	<path class="st0" d="M33.73,15.63c6.48-0.06,12.56,1.04,18.54,2.78c6.35,1.85,12.38,4.51,18.33,7.37c2.08,1,4.21,1.89,6.34,2.76
		c0.38,0.15,1.16,0.13,1.28-0.08c0.2-0.36,0.17-1.01-0.02-1.4c-0.6-1.19-1.22-2.39-2.02-3.44c-5.41-7.11-12.24-12.52-20.17-16.55
		c-7.46-3.79-15.34-5.75-23.77-4.95c-5.52,0.53-10.5,2.41-14.75,6.02c-3.55,3.01-6.12,6.68-7.22,11.27
		c-0.35,1.47-0.54,2.98,0.2,4.41c0.48,0.92,1.07,1.04,1.87,0.39c0.3-0.24,0.57-0.53,0.83-0.82c2.1-2.41,4.58-4.3,7.54-5.54
		C24.95,16.09,29.4,15.56,33.73,15.63z"/>
	<path class="st1" d="M31.05,59.94c-6.53-0.45-12.86-1.69-18.63-4.96C4.52,50.51,0.64,43.67,0.8,34.57
		c0.04-2.55,0.42-5.06,1.38-7.42c0.36-0.87,0.93-1.71,1.58-2.39c0.77-0.81,1.63-0.57,2.02,0.48c0.45,1.2,0.8,2.43,1.15,3.66
		c2.25,8.02,7.68,12.67,15.58,14.68c5.62,1.42,11.33,1.58,17.08,1.11c10.16-0.83,19.9-3.54,29.58-6.53
		c2.71-0.84,5.45-1.56,8.19-2.27c0.48-0.12,1.05,0.08,1.58,0.13c-0.18,0.5-0.24,1.08-0.55,1.47c-1.86,2.4-4.2,4.29-6.6,6.11
		c-7.76,5.9-16.16,10.64-25.44,13.75c-4.61,1.55-9.34,2.51-14.22,2.59C31.77,59.95,31.41,59.94,31.05,59.94z"/>
	<path class="st2" d="M33.73,15.63c-4.33-0.07-8.78,0.46-13.02,2.22c-2.96,1.23-5.44,3.12-7.54,5.54c-0.25,0.29-0.53,0.58-0.83,0.82
		c-0.8,0.65-1.39,0.53-1.87-0.39c-0.74-1.43-0.55-2.94-0.2-4.41c1.1-4.58,3.67-8.26,7.22-11.27c4.25-3.61,9.23-5.49,14.75-6.02
		c8.43-0.81,16.31,1.16,23.77,4.95c7.93,4.02,14.76,9.44,20.17,16.55c0.8,1.05,1.42,2.26,2.02,3.44c0.2,0.39,0.23,1.04,0.02,1.4
		c-0.12,0.21-0.9,0.23-1.28,0.08c-2.13-0.87-4.27-1.76-6.34-2.76c-5.95-2.87-11.97-5.53-18.33-7.37
		C46.29,16.67,40.21,15.57,33.73,15.63z"/>
	<path class="st3" d="M70.58,28.09c-1.2-0.15-2.4-0.32-3.61-0.45c-9.48-0.97-18.78-0.21-27.77,3.13c-3.67,1.36-7.03,3.33-10.19,5.63
		c-0.85,0.62-1.72,1.23-2.64,1.75c-1.37,0.78-2.6,0.44-3.24-1.01c-0.43-0.97-0.75-2.06-0.81-3.12c-0.09-1.66-0.07-3.35,0.16-4.99
		c0.46-3.23,2.54-5.29,5.36-6.66c2.77-1.35,5.76-1.83,8.8-2.01c7.66-0.46,15.07,0.9,22.31,3.29C62.87,24.96,66.69,26.71,70.58,28.09
		C70.56,28.19,70.6,27.99,70.58,28.09z"/>
</g>
<g>
	<path class="st2" d="M121.82,36.31c-0.48,2.87-1.66,5.09-3.54,6.67c-1.88,1.58-4.21,2.37-6.99,2.37c-3.05,0-5.63-1.05-7.72-3.13
		c-1.23-1.23-2.01-2.67-2.33-4.3c-0.32-1.61-0.48-3.98-0.48-7.11s0.16-5.51,0.48-7.11c0.32-1.63,1.1-3.07,2.33-4.3
		c2.09-2.09,4.66-3.13,7.72-3.13c2.79,0,5.12,0.79,6.99,2.37c1.88,1.58,3.05,3.81,3.54,6.67h-5.67c-0.67-2.71-2.28-4.06-4.82-4.06
		c-1.55,0-2.75,0.5-3.58,1.49c-0.59,0.62-0.97,1.43-1.15,2.43c-0.17,1-0.26,2.89-0.26,5.65c0,2.76,0.09,4.64,0.26,5.65
		c0.17,1,0.56,1.82,1.15,2.43c0.83,0.99,2.02,1.49,3.58,1.49c2.55,0,4.15-1.35,4.82-4.06H121.82z"/>
	<path class="st2" d="M143.16,36.27h-13.1c0,1.39,0.41,2.52,1.23,3.38c0.82,0.86,1.94,1.29,3.36,1.29c1.1,0,1.99-0.15,2.67-0.46
		c0.68-0.31,1.37-0.81,2.07-1.51l3.18,3.1c-1.15,1.15-2.32,1.99-3.5,2.51c-1.18,0.52-2.67,0.78-4.46,0.78
		c-1.34,0-2.55-0.17-3.64-0.5c-1.09-0.33-2.1-0.89-3.03-1.67c-0.94-0.78-1.68-1.89-2.21-3.34c-0.54-1.45-0.8-3.19-0.8-5.23
		c0-3.35,0.83-5.97,2.49-7.86c1.66-1.89,3.87-2.83,6.63-2.83c2.84,0,5.07,0.93,6.69,2.79c1.62,1.86,2.43,4.27,2.43,7.22V36.27z
		 M138.02,32.69c-0.03-0.83-0.19-1.58-0.48-2.25c-0.64-1.45-1.81-2.17-3.5-2.17c-1.69,0-2.85,0.72-3.5,2.17
		c-0.3,0.67-0.46,1.42-0.48,2.25H138.02z"/>
	<path class="st2" d="M156.71,45.11h-2.85c-1.98,0-3.49-0.59-4.52-1.77c-1.03-1.18-1.55-2.59-1.55-4.22V28.75h-2.21v-3.98h2.21
		v-6.19h5.23v6.19h3.7v3.98h-3.7V38.8c0,1.26,0.6,1.89,1.81,1.89h1.89V45.11z"/>
	<path class="st2" d="M184.43,45.11h-5.83l-1.69-5.06h-10.17l-1.73,5.06h-5.83l10.41-28.62h4.38L184.43,45.11z M175.43,35.35
		l-3.5-10.41l-3.62,10.41H175.43z"/>
	<path class="st2" d="M204.86,31.31c0.05,0.82,0.08,1.92,0.08,3.32c0,1.39-0.03,2.5-0.08,3.32c-0.05,0.82-0.25,1.78-0.58,2.89
		c-0.34,1.11-0.82,1.99-1.47,2.63c-1.26,1.26-2.96,1.89-5.1,1.89c-2.12,0-3.81-0.7-5.06-2.09v9.53h-5.23V24.17h5.06v1.97
		c1.31-1.47,3.05-2.21,5.23-2.21c2.14,0,3.84,0.63,5.1,1.89c0.64,0.64,1.13,1.51,1.47,2.61C204.62,29.53,204.81,30.49,204.86,31.31z
		 M199.72,34.62c0-1.98-0.23-3.48-0.68-4.48c-0.46-1.01-1.41-1.51-2.85-1.51c-1.45,0-2.4,0.5-2.85,1.51c-0.46,1-0.68,2.5-0.68,4.48
		c0,0.96,0.04,1.77,0.12,2.41c0.08,0.64,0.23,1.26,0.46,1.85c0.23,0.59,0.59,1.03,1.09,1.33c0.5,0.3,1.12,0.44,1.87,0.44
		c0.75,0,1.37-0.15,1.87-0.44c0.5-0.29,0.86-0.74,1.09-1.33c0.23-0.59,0.38-1.21,0.46-1.85C199.68,36.39,199.72,35.59,199.72,34.62z
		"/>
	<path class="st2" d="M226.65,31.31c0.05,0.82,0.08,1.92,0.08,3.32c0,1.39-0.03,2.5-0.08,3.32c-0.05,0.82-0.25,1.78-0.58,2.89
		c-0.34,1.11-0.82,1.99-1.47,2.63c-1.26,1.26-2.96,1.89-5.1,1.89c-2.12,0-3.81-0.7-5.06-2.09v9.53h-5.23V24.17h5.06v1.97
		c1.31-1.47,3.05-2.21,5.23-2.21c2.14,0,3.84,0.63,5.1,1.89c0.64,0.64,1.13,1.51,1.47,2.61C226.4,29.53,226.6,30.49,226.65,31.31z
		 M221.51,34.62c0-1.98-0.23-3.48-0.68-4.48c-0.46-1.01-1.41-1.51-2.85-1.51c-1.45,0-2.4,0.5-2.85,1.51c-0.46,1-0.68,2.5-0.68,4.48
		c0,0.96,0.04,1.77,0.12,2.41c0.08,0.64,0.23,1.26,0.46,1.85c0.23,0.59,0.59,1.03,1.09,1.33c0.5,0.3,1.12,0.44,1.87,0.44
		c0.75,0,1.37-0.15,1.87-0.44c0.5-0.29,0.86-0.74,1.09-1.33c0.23-0.59,0.38-1.21,0.46-1.85C221.47,36.39,221.51,35.59,221.51,34.62z
		"/>
	<path class="st2" d="M261.82,33.38c0,2.09-0.21,3.81-0.62,5.15c-0.42,1.34-1.12,2.53-2.11,3.58c-2.14,2.17-4.84,3.26-8.08,3.26
		c-3.05,0-5.63-1.05-7.72-3.13c-1.23-1.23-2.01-2.67-2.33-4.3c-0.32-1.61-0.48-3.98-0.48-7.11s0.16-5.51,0.48-7.11
		c0.32-1.63,1.1-3.07,2.33-4.3c2.09-2.09,4.66-3.13,7.72-3.13c3.08,0,5.55,0.86,7.4,2.57c1.85,1.72,2.97,3.91,3.38,6.59h-5.63
		c-0.7-2.79-2.41-4.18-5.15-4.18c-1.5,0-2.69,0.51-3.58,1.53c-0.56,0.7-0.93,1.53-1.11,2.51c-0.18,0.98-0.26,2.82-0.26,5.53
		c0,2.76,0.09,4.63,0.26,5.61c0.17,0.98,0.54,1.8,1.11,2.47c0.83,0.99,2.02,1.49,3.58,1.49c1.66,0,2.99-0.54,3.98-1.61
		c0.86-0.99,1.29-2.26,1.29-3.82v-1.09h-5.27V29.2h10.81V33.38z"/>
	<path class="st2" d="M286.58,27.23c0.03,0.75,0.04,1.94,0.04,3.58c0,1.63-0.01,2.83-0.04,3.58c-0.03,0.75-0.12,1.68-0.28,2.79
		c-0.16,1.11-0.45,2.06-0.86,2.83c-0.42,0.78-0.97,1.51-1.67,2.21c-2.09,2.09-4.66,3.13-7.72,3.13c-3.08,0-5.67-1.05-7.76-3.13
		c-0.7-0.7-1.25-1.43-1.65-2.19c-0.4-0.76-0.68-1.72-0.84-2.87c-0.16-1.15-0.26-2.08-0.28-2.77c-0.03-0.7-0.04-1.89-0.04-3.58
		s0.01-2.88,0.04-3.58c0.03-0.7,0.12-1.62,0.28-2.77c0.16-1.15,0.44-2.11,0.84-2.87c0.4-0.76,0.95-1.49,1.65-2.19
		c2.09-2.09,4.68-3.13,7.76-3.13c3.06,0,5.63,1.04,7.72,3.13c0.7,0.7,1.25,1.43,1.67,2.21c0.41,0.78,0.7,1.72,0.86,2.83
		C286.46,25.55,286.55,26.48,286.58,27.23z M280.75,36.37c0.19-1.03,0.28-2.89,0.28-5.57c0-2.68-0.09-4.54-0.28-5.57
		c-0.19-1.03-0.56-1.86-1.13-2.47c-0.88-1.02-2.08-1.53-3.58-1.53c-1.53,0-2.73,0.51-3.62,1.53c-0.56,0.62-0.93,1.43-1.11,2.45
		c-0.18,1.02-0.26,2.88-0.26,5.59c0,2.71,0.09,4.57,0.26,5.59c0.17,1.02,0.54,1.84,1.11,2.45c0.88,1.02,2.09,1.53,3.62,1.53
		c1.5,0,2.69-0.51,3.58-1.53C280.19,38.23,280.56,37.4,280.75,36.37z"/>
	<path class="st2" d="M296.73,21.55c0.85,0.85,1.27,1.88,1.27,3.08s-0.42,2.23-1.27,3.08c-0.85,0.85-1.88,1.27-3.08,1.27
		s-2.23-0.42-3.08-1.27c-0.85-0.85-1.27-1.88-1.27-3.08s0.42-2.23,1.27-3.08c0.85-0.85,1.88-1.27,3.08-1.27
		S295.88,20.7,296.73,21.55z M296.01,27.04c0.64-0.65,0.96-1.45,0.96-2.41s-0.32-1.77-0.96-2.41c-0.64-0.65-1.42-0.97-2.36-0.97
		c-0.94,0-1.73,0.32-2.36,0.97c-0.64,0.65-0.96,1.45-0.96,2.41s0.32,1.77,0.96,2.41c0.64,0.65,1.42,0.97,2.36,0.97
		C294.59,28.01,295.37,27.69,296.01,27.04z M295.61,26.94h-1.18l-0.84-1.79h-0.49v1.79h-1.03v-4.63h1.89c0.46,0,0.83,0.14,1.11,0.43
		c0.28,0.28,0.43,0.63,0.43,1.03c0,0.3-0.08,0.55-0.24,0.76c-0.16,0.21-0.36,0.37-0.61,0.46L295.61,26.94z M294.27,24.19
		c0.12-0.12,0.18-0.26,0.18-0.43c0-0.17-0.06-0.31-0.18-0.43c-0.12-0.12-0.27-0.17-0.46-0.17h-0.72v1.2h0.72
		C294,24.37,294.15,24.31,294.27,24.19z"/>
</g>
</svg>
